<svg width="127" height="128" viewBox="0 0 127 128" fill="none" xmlns="http://www.w3.org/2000/svg">
<path fill-rule="evenodd" clip-rule="evenodd" d="M65.5295 19.5837C68.5856 25.4965 74.427 36.5619 86.9549 47.6858C95.4144 55.1973 101.472 58.4393 106.339 61.044C108.123 61.9985 109.747 62.8675 111.27 63.8296C100.807 69.3105 92.6574 74.7614 84.5632 82.365C75.2107 91.1507 69.2315 101.728 66.0313 107.388C65.8557 107.699 65.6885 107.995 65.5295 108.275V19.5837ZM73.5021 45.3934C75.6945 47.9844 78.5303 51.1175 83.866 55.6577C88.8486 59.8974 92.6511 62.3877 95.0271 63.8872C92.6789 65.109 87.2518 69.1215 83.866 72.2997C82.7248 73.3708 81.5201 74.4548 80.3471 75.5102C77.2782 78.2715 74.4269 80.837 73.5021 82.4643V45.3934Z" fill="#0460E9"/>
<path fill-rule="evenodd" clip-rule="evenodd" d="M63.5864 2.84253L65.0029 5.58303C68.9774 13.2729 76.5244 27.5669 92.7219 41.9492C105.62 53.4015 114.513 57.7381 121.161 60.9802L121.178 60.9886L121.185 60.9918C122.253 61.5126 123.277 62.0123 124.251 62.5089L127 63.9103L124.267 65.3418C110.674 72.462 100.115 79.8906 89.6208 89.7489C77.5599 101.079 69.8263 114.744 65.6319 122.163C65.402 122.57 65.1821 122.959 64.9729 123.328L63.5864 125.769L62.2 123.328C62.0571 123.076 61.909 122.815 61.7561 122.545C57.6089 115.227 49.6957 101.279 37.4215 89.7489C26.9258 79.8893 16.3665 72.4301 2.77521 65.3109L0 63.8572L2.80857 62.4691C3.7677 61.995 4.73556 61.5303 5.7134 61.0607L5.74435 61.0458C12.9344 57.5931 21.1392 53.6532 34.3203 41.9492C50.5219 27.5633 58.1998 13.2645 62.17 5.58303L63.5864 2.84253ZM63.5844 9.75324C59.1941 17.9766 51.3094 31.1287 36.4376 44.3338C22.9388 56.3198 14.4446 60.4054 7.09806 63.9333C7.07501 63.9443 7.05197 63.9554 7.02895 63.9665C19.5522 70.7773 29.6136 78.0389 39.6048 87.4247C51.3662 98.4733 59.2054 111.628 63.5845 119.307C67.9388 111.633 75.6734 98.4757 87.4374 87.4247C97.4373 78.0309 107.506 70.7927 120.041 63.9819C119.955 63.9398 119.868 63.8974 119.78 63.8548C113.002 60.5491 103.818 56.0663 90.6046 44.3338C75.7307 31.1267 67.9498 17.9717 63.5844 9.75324Z" fill="#0460E9"/>
<path fill-rule="evenodd" clip-rule="evenodd" d="M61.4443 19.584C59.7841 22.796 57.302 27.5285 53.3726 32.965V45.5107L53.4717 45.3937V82.4646C52.5468 80.8373 49.6956 78.2718 46.6267 75.5105L46.6266 75.5105C45.4537 74.4551 44.2489 73.3711 43.1078 72.3C41.6134 70.8973 39.7214 69.332 37.8719 67.9159H48.19V59.7443H37.9935C37.9937 59.7442 37.994 59.744 37.9942 59.7438H23.042C22.2064 60.2029 21.4054 60.6316 20.6343 61.0442C18.8507 61.9987 17.227 62.8677 15.7036 63.8298C26.1672 69.3107 34.3164 74.7616 42.4106 82.3652C51.7631 91.1509 57.7423 101.728 60.9425 107.389L60.9425 107.389C61.1181 107.699 61.2853 107.995 61.4443 108.275V19.584Z" fill="#0460E9"/>
</svg>
