<svg width="410" height="100" viewBox="0 0 410 100" fill="none" xmlns="http://www.w3.org/2000/svg">
<g clip-path="url(#clip0_18_30)">
<g clip-path="url(#clip1_18_30)">
<path fill-rule="evenodd" clip-rule="evenodd" d="M51.2854 15.4758C53.6771 20.1033 58.2488 28.7634 68.0535 37.4694C74.6742 43.3481 79.4153 45.8853 83.2244 47.9238C84.6204 48.6709 85.8911 49.3509 87.0834 50.1039C78.8943 54.3934 72.5165 58.6595 66.1817 64.6103C58.8622 71.4862 54.1827 79.764 51.6781 84.1944C51.5407 84.4375 51.4098 84.669 51.2854 84.888V15.4758ZM57.5248 35.6753C59.2406 37.7031 61.46 40.1552 65.6359 43.7084C69.5354 47.0266 72.5113 48.9755 74.3709 50.1491C72.5331 51.1053 68.2857 54.2456 65.6359 56.7329C64.7428 57.5713 63.7999 58.4196 62.8819 59.2456C60.4801 61.4067 58.2486 63.4145 57.5248 64.688V35.6753Z" fill="#0460E9"/>
<path fill-rule="evenodd" clip-rule="evenodd" d="M49.7646 2.37378L50.8732 4.51857C53.9837 10.5369 59.8902 21.7238 72.5669 32.9798C82.661 41.9427 89.6209 45.3367 94.8241 47.874L94.8376 47.8806L94.8427 47.8831C95.6786 48.2907 96.4805 48.6818 97.2429 49.0705L99.3939 50.1672L97.2551 51.2876C86.6167 56.86 78.353 62.6739 70.1399 70.3893C60.7007 79.2564 54.6481 89.9511 51.3655 95.7579C51.1855 96.0762 51.0134 96.3806 50.8497 96.6689L49.7646 98.5796L48.6795 96.6689C48.5677 96.472 48.4518 96.2676 48.3321 96.0564C45.0864 90.3294 38.8933 79.4133 29.2871 70.3893C21.0729 62.6729 12.8089 56.8351 2.17196 51.2633L0 50.1256L2.19807 49.0393C2.94871 48.6683 3.70619 48.3045 4.47147 47.937L4.4957 47.9254C10.1229 45.2232 16.5442 42.1397 26.8601 32.9798C39.5399 21.721 45.5489 10.5303 48.6561 4.51857L49.7646 2.37378ZM49.763 7.78231C46.327 14.2182 40.1562 24.5114 28.5172 34.846C17.9526 44.2267 11.3048 47.4242 5.55515 50.1852C5.53711 50.1939 5.51908 50.2025 5.50107 50.2112C15.3021 55.5416 23.1764 61.2247 30.9959 68.5703C40.2007 77.2172 46.3359 87.5122 49.7631 93.5223C53.1709 87.5162 59.2242 77.2191 68.4311 68.5703C76.2573 61.2184 84.1377 55.5536 93.9476 50.2233C93.88 50.1903 93.812 50.1572 93.7437 50.1238C88.4383 47.5367 81.251 44.0283 70.9098 34.846C59.269 24.5098 53.1795 14.2143 49.763 7.78231Z" fill="#0460E9"/>
<path fill-rule="evenodd" clip-rule="evenodd" d="M48.088 15.4761C46.7887 17.9899 44.8462 21.6937 41.7709 25.9485V35.7673L41.8486 35.6756V64.6883C41.1248 63.4147 38.8933 61.4069 36.4915 59.2458L36.4913 59.2457L36.4905 59.245C35.5728 58.4193 34.6303 57.5712 33.7375 56.7332C32.568 55.6354 31.0872 54.4103 29.6397 53.302H37.7149V46.9067H29.735C29.7351 46.9066 29.7352 46.9066 29.7353 46.9065H18.0331C17.3794 47.2656 16.7529 47.6009 16.1497 47.9237L16.149 47.9241C14.753 48.6711 13.4823 49.3512 12.29 50.1042C20.4791 54.3937 26.8569 58.6597 33.1917 64.6105C40.5112 71.4865 45.1908 79.7642 47.6953 84.1946L47.6973 84.198C47.834 84.4399 47.9642 84.6702 48.088 84.8883V15.4761Z" fill="#0460E9"/>
</g>
<path d="M396.473 65.8021V60.1806H399.899V39.0561H396.473V33.4346H410V39.0561H406.574L406.486 60.1806H410V65.8021H396.473Z" fill="white"/>
<path d="M363.274 65.8021L373.287 33.4346H384.047L394.061 65.8021H386.814L384.794 58.6435H372.541L370.565 65.8021H363.274ZM374.122 53.0659H383.213L379.348 39.1439H378.031L374.122 53.0659Z" fill="white"/>
<path d="M335.857 65.8021V60.0049H352.326L354.039 58.2482V53.7247L352.326 51.9679L339.546 52.0119L334.671 47.0931V38.3095L339.546 33.4346H359.089V39.2317H343.191L341.478 40.9885V44.5458L343.191 46.3025H355.971L360.846 51.1774V60.9272L355.971 65.8021H335.857Z" fill="white"/>
<path d="M307.634 65.8021V33.4346H330.998V39.2757H314.485V46.2147H329.461V51.8362H314.485V59.961H330.998V65.8021H307.634Z" fill="white"/>
<path d="M275.467 65.8021V33.4346H295.362L302.125 40.1979V59.0387L295.362 65.8021H275.467ZM282.318 60.2684H292.288L295.406 57.1503V42.0425L292.288 38.9682H282.318V60.2684Z" fill="white"/>
<path d="M234.852 65.8021V33.4346H241.703V47.9714L253.78 33.4346H261.554L249.872 47.4005L261.554 65.8021H253.868L245.656 52.451L241.703 57.1942V65.8021H234.852Z" fill="white"/>
<path d="M200.555 65.8021L210.568 33.4346H221.328L231.341 65.8021H224.095L222.074 58.6435H209.821L207.845 65.8021H200.555ZM211.402 53.0659H220.493L216.629 39.1439H215.311L211.402 53.0659Z" fill="white"/>
<path d="M170.561 65.8021V33.4346H178.598L190.456 54.3834V33.4346H197.087V65.8021H190.236L178.51 45.0289H177.192V65.8021H170.561Z" fill="white"/>
<path d="M136.307 65.8021L146.321 33.4346H157.081L167.094 65.8021H159.847L157.827 58.6435H145.574L143.598 65.8021H136.307ZM147.155 53.0659H156.246L152.381 39.1439H151.064L147.155 53.0659Z" fill="white"/>
<path d="M114.622 65.8021L109.747 60.9272V52.7146H116.599V58.5117L118.355 60.2684H124.196L125.953 58.5117V33.4346H132.804V60.9272L127.929 65.8021H114.622Z" fill="white"/>
</g>
<defs>
<clipPath id="clip0_18_30">
<rect width="410" height="99.3939" fill="white" transform="translate(0 0.303223)"/>
</clipPath>
<clipPath id="clip1_18_30">
<rect width="99.3939" height="99.3939" fill="white" transform="translate(0 0.303223)"/>
</clipPath>
</defs>
</svg>
